<?xml version="1.0" standalone="no"?>
<!DOCTYPE svg PUBLIC "-//W3C//DTD SVG 20010904//EN"
 "http://www.w3.org/TR/2001/REC-SVG-20010904/DTD/svg10.dtd">
<svg version="1.0" xmlns="http://www.w3.org/2000/svg"
 width="3215.000000pt" height="1044.000000pt" viewBox="0 0 3215.000000 1044.000000"
 preserveAspectRatio="xMidYMid meet">

<g transform="translate(0.000000,1044.000000) scale(0.100000,-0.100000)"
fill="#000000" stroke="none">
<path d="M6712 7608 c-22 -40 -150 -280 -285 -533 -419 -787 -484 -907 -772
-1437 -154 -284 -283 -513 -287 -510 -16 17 -261 582 -445 1027 -113 273 -387
962 -493 1238 l-53 137 -1058 0 -1058 0 35 -77 c153 -331 319 -701 444 -993
179 -417 800 -1924 1252 -3040 182 -448 332 -816 333 -818 2 -2 46 81 99 183
264 510 1340 2511 1365 2538 12 13 625 -1092 1064 -1918 230 -434 422 -793
426 -798 4 -4 328 721 721 1610 392 890 830 1881 973 2203 383 865 447 1017
447 1068 0 67 -101 120 -199 106 -89 -13 -87 -9 -312 -604 -123 -324 -424
-1079 -625 -1567 -112 -272 -131 -310 -142 -295 -20 26 -295 500 -424 732
-205 366 -396 725 -675 1270 -151 294 -278 539 -282 543 -5 5 -27 -24 -49 -65z"/>
<path d="M15480 7659 c-803 -83 -1516 -564 -1894 -1279 -147 -279 -244 -588
-275 -882 -25 -222 -10 -548 34 -761 93 -449 334 -903 648 -1220 265 -268 568
-456 957 -594 418 -149 824 -179 1250 -93 690 138 1211 489 1612 1085 160 236
191 357 106 401 -68 35 -141 0 -195 -96 -178 -312 -434 -620 -658 -791 -293
-224 -700 -384 -1095 -430 -100 -11 -378 -7 -456 7 l-32 6 -7 511 c-10 643
-10 2542 0 3324 7 533 9 592 24 599 9 4 95 9 192 12 360 9 688 -63 1024 -228
313 -153 551 -347 757 -615 84 -110 123 -144 171 -151 39 -6 92 24 109 62 30
66 -44 194 -215 371 -504 521 -1104 776 -1812 771 -88 0 -198 -5 -245 -9z"/>
<path d="M10810 6686 c-447 -65 -832 -261 -1140 -582 -199 -207 -336 -440
-434 -734 -136 -410 -138 -799 -4 -1200 94 -283 237 -524 433 -728 284 -297
621 -484 1016 -564 101 -20 142 -23 364 -23 234 0 258 2 378 28 306 65 616
195 870 364 318 211 577 510 577 666 0 99 -60 164 -143 153 -55 -6 -93 -41
-196 -175 -280 -367 -594 -608 -960 -735 -172 -60 -284 -79 -461 -80 -181 -1
-231 11 -303 74 -91 80 -97 138 -97 914 l0 593 818 6 c449 4 958 7 1130 7
l312 0 0 100 c0 499 -187 987 -507 1320 -300 314 -657 508 -1063 581 -148 27
-452 34 -590 15z m508 -211 c116 -27 186 -79 226 -165 21 -44 21 -60 24 -736
l3 -691 -128 -6 c-165 -9 -456 -9 -611 0 l-122 6 0 571 c0 829 10 900 134 981
79 52 331 73 474 40z"/>
<path d="M20070 6694 c-434 -31 -771 -116 -1065 -268 -309 -160 -432 -312
-365 -451 47 -96 158 -132 259 -83 30 14 96 73 186 163 225 226 396 322 695
387 93 20 133 22 345 23 203 0 251 -3 310 -19 200 -53 297 -148 325 -319 5
-34 13 -263 17 -509 l6 -448 -124 54 c-331 143 -538 186 -898 186 -449 0 -798
-103 -1112 -327 -264 -188 -412 -407 -475 -705 -24 -113 -24 -359 -1 -481 48
-239 143 -421 317 -601 221 -228 494 -375 798 -427 141 -24 373 -25 517 -4
281 42 609 173 880 349 47 31 88 56 90 56 3 0 5 -79 5 -175 l0 -175 946 0 945
0 -29 53 c-40 69 -97 207 -116 282 -36 140 -38 197 -36 1140 0 565 -3 1004
-10 1119 -12 215 -40 392 -72 469 -54 128 -178 273 -313 364 -251 169 -626
278 -1125 328 -157 16 -765 28 -900 19z m247 -1583 c100 -26 235 -77 367 -139
l99 -46 -5 -690 -5 -690 -54 -49 c-125 -112 -337 -229 -485 -267 -88 -23 -197
-26 -258 -8 -57 18 -111 75 -126 134 -17 69 -26 1185 -11 1405 14 203 22 238
75 295 78 86 209 104 403 55z"/>
<path d="M26240 6684 c-360 -48 -767 -214 -1143 -466 -48 -32 -94 -61 -102
-64 -13 -5 -15 25 -15 225 l0 231 -866 0 -866 0 8 -287 c10 -355 10 -2184 0
-2885 l-8 -518 864 0 863 0 1 1472 1 1472 49 43 c119 105 307 224 444 280 213
88 424 82 499 -13 12 -15 29 -52 39 -83 16 -52 17 -135 17 -1046 0 -544 -4
-1245 -8 -1557 l-8 -568 858 0 858 0 -1 1317 c-2 1332 -5 1447 -40 1653 -46
271 -162 447 -392 598 -269 175 -660 248 -1052 196z"/>
</g>
</svg>
